<?xml version="1.0" encoding="UTF-8"?>
<svg xmlns="http://www.w3.org/2000/svg" xmlns:xlink="http://www.w3.org/1999/xlink" width="20pt" height="20pt" viewBox="0 0 20 20" version="1.1">
<g id="surface1">
<path style=" stroke:none;fill-rule:nonzero;fill:rgb(26.27451%,38.039216%,65.098039%);fill-opacity:1;" d="M 9.921875 0 C 4.441406 0 0 4.441406 0 9.921875 C 0 15.398438 4.441406 19.839844 9.921875 19.839844 C 15.398438 19.839844 19.839844 15.398438 19.839844 9.921875 C 19.839844 4.441406 15.398438 0 9.921875 0 Z M 12.328125 9.875 L 10.628906 9.875 C 10.628906 12.613281 10.628906 15.96875 10.628906 15.96875 L 8.125 15.96875 C 8.125 15.96875 8.125 12.613281 8.125 9.875 L 6.898438 9.875 L 6.898438 7.699219 L 8.125 7.699219 L 8.125 6.28125 C 8.125 5.289062 8.550781 3.734375 10.628906 3.734375 L 12.519531 3.734375 L 12.519531 5.8125 C 12.519531 5.8125 11.386719 5.8125 11.148438 5.8125 C 10.914062 5.8125 10.628906 5.90625 10.628906 6.378906 L 10.628906 7.652344 L 12.566406 7.652344 Z M 12.328125 9.875 "/>
</g>
</svg>
