<?xml version="1.0" encoding="utf-8"?>
<!-- Generator: Adobe Illustrator 19.2.1, SVG Export Plug-In . SVG Version: 6.00 Build 0)  -->
<svg version="1.1" id="Layer_1" xmlns="http://www.w3.org/2000/svg" xmlns:xlink="http://www.w3.org/1999/xlink" x="0px" y="0px"
	 viewBox="0 0 42 42" style="enable-background:new 0 0 42 42;" xml:space="preserve">
<style type="text/css">
	.st0{fill-rule:evenodd;clip-rule:evenodd;fill:#33BBE0;}
</style>
<g>
	<path class="st0" d="M21,41.9C9.5,41.9,0.1,32.5,0.1,21C0.1,9.5,9.5,0.1,21,0.1c11.6,0,20.9,9.4,20.9,20.9
		C41.9,32.5,32.5,41.9,21,41.9L21,41.9z M34.7,11.3c-1.1,0.6-2.3,1.1-3.5,1.3c-1-1.1-2.4-1.8-4-1.8c-3.1,0-5.5,2.5-5.5,5.6
		c0,0.4,0,0.9,0.1,1.3c-4.6-0.2-8.7-2.4-11.4-5.8c-0.5,0.8-0.7,1.8-0.7,2.8c0,1.9,1,3.6,2.5,4.6c-0.9,0-1.8-0.3-2.5-0.7
		c0,0,0,0,0,0.1c0,2.7,1.9,4.9,4.4,5.4c-0.5,0.1-1,0.2-1.5,0.2c-0.4,0-0.7,0-1-0.1c0.7,2.2,2.7,3.8,5.2,3.9
		c-1.9,1.5-4.3,2.4-6.9,2.4c-0.4,0-0.9,0-1.3-0.1c2.5,1.6,5.4,2.5,8.5,2.5c10.2,0,15.8-8.5,15.8-15.8c0-0.2,0-0.5,0-0.7
		c1.1-0.8,2-1.8,2.8-2.9c-1,0.4-2.1,0.7-3.2,0.9C33.4,13.7,34.3,12.6,34.7,11.3L34.7,11.3z"/>
</g>
</svg>
