<?xml version="1.0" encoding="UTF-8"?>
<svg xmlns="http://www.w3.org/2000/svg" xmlns:xlink="http://www.w3.org/1999/xlink" width="20pt" height="20pt" viewBox="0 0 20 20" version="1.1">
<defs>
<radialGradient id="radial0" gradientUnits="userSpaceOnUse" cx="7.0389" cy="43.0442" fx="7.0389" fy="43.0442" r="40.6044" gradientTransform="matrix(0.47619,0,0,0.47619,0,0)">
<stop offset="0" style="stop-color:rgb(100%,83.921569%,46.27451%);stop-opacity:1;"/>
<stop offset="0.2463" style="stop-color:rgb(94.901961%,64.313725%,32.941176%);stop-opacity:1;"/>
<stop offset="0.3793" style="stop-color:rgb(94.117647%,36.078431%,23.529412%);stop-opacity:1;"/>
<stop offset="0.6995" style="stop-color:rgb(76.078431%,18.431373%,52.54902%);stop-opacity:1;"/>
<stop offset="0.9568" style="stop-color:rgb(40%,40%,67.843137%);stop-opacity:1;"/>
<stop offset="0.9852" style="stop-color:rgb(36.078431%,42.352941%,69.803922%);stop-opacity:1;"/>
</radialGradient>
</defs>
<g id="surface1">
<path style=" stroke:none;fill-rule:nonzero;fill:url(#radial0);" d="M 10 0 C 4.476562 0 0 4.476562 0 10 C 0 15.523438 4.476562 20 10 20 C 15.523438 20 20 15.523438 20 10 C 20 4.476562 15.523438 0 10 0 Z M 10 0 "/>
<path style=" stroke:none;fill-rule:nonzero;fill:rgb(100%,100%,100%);fill-opacity:1;" d="M 10 5.09375 C 11.617188 5.09375 11.808594 5.09375 12.476562 5.144531 C 13.046875 5.191406 13.382812 5.285156 13.617188 5.332031 C 13.90625 5.429688 14.09375 5.570312 14.332031 5.808594 C 14.523438 6 14.667969 6.238281 14.808594 6.523438 C 14.90625 6.761719 15 7.046875 15 7.667969 C 15.046875 8.285156 15.046875 8.523438 15.046875 10.144531 C 15.046875 11.761719 15.046875 11.953125 15 12.617188 C 14.953125 13.191406 14.855469 13.523438 14.808594 13.761719 C 14.714844 14.046875 14.570312 14.238281 14.332031 14.476562 C 14.144531 14.667969 13.90625 14.808594 13.617188 14.953125 C 13.382812 15.046875 13.09375 15.144531 12.476562 15.144531 C 11.855469 15.191406 11.617188 15.191406 10 15.191406 C 8.382812 15.191406 8.191406 15.191406 7.523438 15.144531 C 6.953125 15.09375 6.617188 15 6.382812 14.953125 C 6.09375 14.855469 5.90625 14.714844 5.667969 14.476562 C 5.476562 14.285156 5.332031 14.046875 5.191406 13.761719 C 5.09375 13.523438 5 13.238281 5 12.617188 C 4.953125 12 4.953125 11.761719 4.953125 10.144531 C 4.953125 8.523438 4.953125 8.332031 5 7.667969 C 5.046875 7.09375 5.144531 6.761719 5.191406 6.523438 C 5.285156 6.238281 5.429688 6.046875 5.667969 5.808594 C 5.855469 5.617188 6.09375 5.476562 6.382812 5.332031 C 6.617188 5.238281 6.90625 5.144531 7.523438 5.144531 C 8.191406 5.09375 8.382812 5.09375 10 5.09375 M 10 4 C 8.332031 4 8.144531 4 7.476562 4.046875 C 6.808594 4.09375 6.382812 4.191406 6 4.332031 C 5.617188 4.476562 5.238281 4.714844 4.90625 5.046875 C 4.570312 5.382812 4.382812 5.714844 4.191406 6.144531 C 4.046875 6.523438 3.953125 6.953125 3.90625 7.617188 C 3.855469 8.285156 3.855469 8.476562 3.855469 10.144531 C 3.855469 11.808594 3.855469 12 3.90625 12.667969 C 3.953125 13.332031 4.046875 13.761719 4.191406 14.144531 C 4.332031 14.523438 4.570312 14.90625 4.90625 15.238281 C 5.238281 15.570312 5.570312 15.761719 6 15.953125 C 6.382812 16.09375 6.808594 16.191406 7.476562 16.238281 C 8.144531 16.191406 8.332031 16.191406 10 16.191406 C 11.667969 16.191406 11.855469 16.191406 12.523438 16.144531 C 13.191406 16.09375 13.617188 16 14 15.855469 C 14.382812 15.714844 14.761719 15.476562 15.09375 15.144531 C 15.429688 14.808594 15.617188 14.476562 15.808594 14.046875 C 15.953125 13.667969 16.046875 13.238281 16.09375 12.570312 C 16.144531 11.90625 16.144531 11.714844 16.144531 10.046875 C 16.144531 8.382812 16.144531 8.191406 16.09375 7.523438 C 16.046875 6.855469 15.953125 6.429688 15.808594 6.046875 C 15.667969 5.667969 15.429688 5.285156 15.09375 4.953125 C 14.761719 4.617188 14.429688 4.429688 14 4.238281 C 13.617188 4.09375 13.191406 4 12.523438 3.953125 C 11.855469 4 11.667969 4 10 4 Z M 10 4 "/>
<path style=" stroke:none;fill-rule:nonzero;fill:rgb(100%,100%,100%);fill-opacity:1;" d="M 10 6.953125 C 8.285156 6.953125 6.855469 8.332031 6.855469 10.09375 C 6.855469 11.855469 8.238281 13.238281 10 13.238281 C 11.761719 13.238281 13.144531 11.855469 13.144531 10.09375 C 13.144531 8.332031 11.714844 6.953125 10 6.953125 Z M 10 12.144531 C 8.855469 12.144531 7.953125 11.238281 7.953125 10.09375 C 7.953125 8.953125 8.855469 8.046875 10 8.046875 C 11.144531 8.046875 12.046875 8.953125 12.046875 10.09375 C 12.046875 11.238281 11.144531 12.144531 10 12.144531 Z M 10 12.144531 "/>
<path style=" stroke:none;fill-rule:nonzero;fill:rgb(100%,100%,100%);fill-opacity:1;" d="M 13.953125 6.855469 C 13.953125 7.25 13.632812 7.570312 13.238281 7.570312 C 12.84375 7.570312 12.523438 7.25 12.523438 6.855469 C 12.523438 6.460938 12.84375 6.144531 13.238281 6.144531 C 13.632812 6.144531 13.953125 6.460938 13.953125 6.855469 Z M 13.953125 6.855469 "/>
</g>
</svg>
