<?xml version="1.0" encoding="UTF-8"?>
<svg xmlns="http://www.w3.org/2000/svg" xmlns:xlink="http://www.w3.org/1999/xlink" width="20pt" height="20pt" viewBox="0 0 20 20" version="1.1">
<g id="surface1">
<path style=" stroke:none;fill-rule:evenodd;fill:rgb(20%,73.333333%,87.843137%);fill-opacity:1;" d="M 10 19.953125 C 4.523438 19.953125 0.046875 15.476562 0.046875 10 C 0.046875 4.523438 4.523438 0.046875 10 0.046875 C 15.523438 0.046875 19.953125 4.523438 19.953125 10 C 19.953125 15.476562 15.476562 19.953125 10 19.953125 Z M 16.523438 5.382812 C 16 5.667969 15.429688 5.90625 14.855469 6 C 14.382812 5.476562 13.714844 5.144531 12.953125 5.144531 C 11.476562 5.144531 10.332031 6.332031 10.332031 7.808594 C 10.332031 8 10.332031 8.238281 10.382812 8.429688 C 8.191406 8.332031 6.238281 7.285156 4.953125 5.667969 C 4.714844 6.046875 4.617188 6.523438 4.617188 7 C 4.617188 7.90625 5.09375 8.714844 5.808594 9.191406 C 5.382812 9.191406 4.953125 9.046875 4.617188 8.855469 C 4.617188 8.855469 4.617188 8.855469 4.617188 8.90625 C 4.617188 10.191406 5.523438 11.238281 6.714844 11.476562 C 6.476562 11.523438 6.238281 11.570312 6 11.570312 C 5.808594 11.570312 5.667969 11.570312 5.523438 11.523438 C 5.855469 12.570312 6.808594 13.332031 8 13.382812 C 7.09375 14.09375 5.953125 14.523438 4.714844 14.523438 C 4.523438 14.523438 4.285156 14.523438 4.09375 14.476562 C 5.285156 15.238281 6.667969 15.667969 8.144531 15.667969 C 13 15.667969 15.667969 11.617188 15.667969 8.144531 C 15.667969 8.046875 15.667969 7.90625 15.667969 7.808594 C 16.191406 7.429688 16.617188 6.953125 17 6.429688 C 16.523438 6.617188 16 6.761719 15.476562 6.855469 C 15.90625 6.523438 16.332031 6 16.523438 5.382812 Z M 16.523438 5.382812 "/>
</g>
</svg>
